<?xml version="1.0" standalone="no"?><!DOCTYPE svg PUBLIC "-//W3C//DTD SVG 1.1//EN" "http://www.w3.org/Graphics/SVG/1.1/DTD/svg11.dtd"><svg t="1506226147573" class="icon" style="" viewBox="0 0 1024 1024" version="1.1" xmlns="http://www.w3.org/2000/svg" p-id="2655" xmlns:xlink="http://www.w3.org/1999/xlink" width="200" height="200"><defs><style type="text/css"></style></defs><path d="M936.866985 373.098899C913.596058 318.079169 880.281378 268.666013 837.848762 226.234452 795.415092 183.800783 746.002992 150.487157 690.982206 127.215175 647.673334 108.896003 602.311422 97.45087 555.640923 93.013693L466.627439 93.013693C419.95694 97.45087 374.596083 108.896003 331.285101 127.215175 276.26537 150.487157 226.85327 183.800783 184.420654 226.234452 141.988039 268.666013 108.673359 318.079169 85.401377 373.098899 67.083259 416.408827 55.638126 461.769684 51.199895 508.440183L51.199895 597.455776C55.638126 644.126275 67.083259 689.487132 85.401377 732.796004 108.673359 787.81679 141.988039 837.228891 184.420654 879.661506 202.275864 897.516715 221.38061 913.735398 241.605196 928.29225 241.630503 928.31123 241.657919 928.33021 241.683227 928.348136 242.397097 927.049039 243.661398 926.064171 245.480345 925.883858 245.282106 925.74256 245.082812 925.60548 244.884574 925.464183 255.239393 916.84079 266.428292 910.486601 278.092753 907.047999L433.022781 812.023026C436.670166 810.959073 440.292244 784.379244 444.52591 772.75696 405.846127 746.71596 384.74001 701.225405 371.46433 657.836392 362.579431 653.542622 353.864301 645.676334 347.310818 634.841735 333.357119 611.873438 334.125822 584.768486 349.043299 574.341964 349.603219 573.882218 350.359268 573.685034 350.997218 573.317026 347.858084 560.119377 344.795926 550.821129 340.99248 547.735772 318.596756 529.665453 318.596756 367.074757 340.99248 355.045451 363.413511 343.003492 406.36703 332.904908 469.931068 300.861909 517.82158 276.71156 570.819908 300.861909 570.819908 300.861909 570.819908 300.861909 666.08108 306.876561 705.360854 349.018145 744.614265 391.172382 738.972892 523.650801 705.360854 565.806091 702.898685 568.852433 700.788705 572.857281 698.743049 577.282859 710.37693 589.233079 710.168147 613.672351 697.322689 634.841735 691.147758 644.993042 683.109592 652.47867 674.784612 656.956971 662.198551 699.426492 643.438614 745.205971 603.520891 771.838523 609.891952 781.096702 617.538911 811.32708 623.857249 813.270454L777.210856 905.800571C782.90179 907.55625 788.47884 910.004711 793.900885 913.071088 793.601417 913.306233 793.297733 913.535051 792.997211 913.770196 794.761327 913.971598 795.997156 914.934322 796.700483 916.203895 797.051618 915.927626 797.406972 915.658738 797.757053 915.381414 811.721297 904.308507 825.105586 892.404682 837.848762 879.661506 880.281378 837.228891 913.596058 787.81679 936.866985 732.796004 958.481352 681.694655 970.530692 627.737822 972.783023 572.141301L972.783023 533.753603C970.530692 478.158135 958.481352 424.201303 936.866985 373.098899" p-id="2656" fill="#ffffff"></path></svg>